<?xml version="1.0" standalone="no"?> <!DOCTYPE svg PUBLIC "-//W3C//DTD SVG 20010904//EN" "http://www.w3.org/TR/2001/REC-SVG-20010904/DTD/svg10.dtd"> <svg version="1.0" xmlns="http://www.w3.org/2000/svg" width="600.000000pt" height="600.000000pt" viewBox="0 0 600.000000 600.000000" preserveAspectRatio="xMidYMid meet"> <g transform="translate(0.000000,600.000000) scale(0.050000,-0.050000)" fill="#8d0707" stroke="none"> <path d="M6962 10375 c-222 -32 -420 -168 -451 -311 -30 -134 -235 -138 -436 -7 -367 238 -737 227 -1092 -33 -153 -112 51 -423 447 -682 198 -129 338 -137 604 -34 317 124 362 100 390 -203 39 -429 104 -704 247 -1045 34 -81 61 -193 72 -296 34 -334 204 -451 657 -453 436 -2 620 134 620 458 0 45 13 131 30 192 205 751 270 1059 270 1279 0 192 27 199 256 70 295 -166 499 -117 885 216 370 319 389 440 88 562 -378 153 -619 152 -916 -4 -282 -148 -382 -144 -480 22 -144 247 -612 352 -1191 269z"/> <path d="M3541 9518 c-309 -54 -749 -436 -932 -808 -121 -244 -124 -289 -138 -1700 -15 -1450 -26 -1581 -163 -1919 -27 -66 -66 -233 -87 -370 -22 -138 -61 -327 -88 -421 -56 -189 -55 -198 19 -159 271 145 438 522 478 1080 17 238 43 221 64 -41 9 -116 1 -200 -33 -357 -28 -128 -41 -237 -34 -289 6 -46 21 -187 33 -314 12 -126 35 -311 51 -410 47 -291 38 -700 -21 -998 -58 -293 -60 -329 -20 -345 38 -14 38 -55 -3 -254 l-32 -161 53 -45 c112 -97 387 -141 406 -66 10 36 15 37 44 12 73 -65 207 -54 235 18 7 18 -24 151 -69 296 -46 145 -88 299 -95 343 -7 44 -32 170 -56 280 -76 351 -63 752 35 1070 50 162 83 317 94 440 9 105 31 258 47 340 17 83 54 326 82 540 28 215 58 422 68 460 9 39 23 95 29 125 18 76 43 69 105 -30 29 -47 65 -92 81 -101 15 -10 57 -56 92 -103 35 -48 111 -141 169 -207 77 -87 95 -118 65 -110 -23 6 -88 63 -146 126 l-104 115 -3 -114 c-1 -77 -30 -194 -85 -354 -93 -272 -101 -379 -44 -587 299 -1077 361 -1389 362 -1806 0 -164 3 -179 54 -230 49 -49 54 -66 49 -178 -7 -167 93 -230 416 -258 319 -28 348 32 183 385 -432 926 -485 1636 -178 2384 118 285 106 277 321 235 91 -18 262 -40 380 -49 258 -20 226 9 288 -266 28 -125 81 -308 118 -407 87 -236 103 -311 128 -610 16 -186 39 -309 92 -480 114 -367 113 -480 -3 -970 -58 -242 -61 -341 -13 -367 32 -19 32 -26 0 -150 -85 -319 -2 -443 317 -468 138 -11 149 -3 169 125 l13 80 16 -86 c19 -106 143 -120 212 -24 40 56 40 62 -51 416 -29 113 -48 213 -42 222 5 9 -8 78 -30 154 -151 527 -149 827 9 1198 85 199 75 425 -31 736 -86 252 -117 470 -89 623 18 92 45 90 195 -11 208 -141 329 -188 482 -185 l135 2 0 -93 c0 -50 -13 -235 -29 -409 -32 -341 -20 -531 45 -763 50 -180 48 -810 -4 -1076 l-39 -196 44 -30 c41 -29 42 -40 30 -227 -18 -279 27 -316 432 -354 l138 -13 7 88 7 88 21 -70 c27 -94 127 -111 179 -31 34 51 31 60 -87 377 -232 621 -295 1089 -202 1514 23 105 50 294 61 420 22 249 64 412 283 1100 72 226 137 464 144 530 24 205 50 295 131 454 281 552 289 631 138 1477 -66 368 -122 587 -178 696 l-37 73 -21 -80 c-65 -251 -83 -331 -95 -437 -51 -431 -919 -537 -1373 -167 -59 49 -95 181 -95 348 0 57 -50 237 -140 504 -140 414 -239 794 -240 917 0 80 -1 80 -238 3 -285 -92 -547 -55 -1612 232 -504 136 -680 162 -869 128z"/> </g> </svg>