<?xml version="1.0" standalone="no"?> <!DOCTYPE svg PUBLIC "-//W3C//DTD SVG 20010904//EN" "http://www.w3.org/TR/2001/REC-SVG-20010904/DTD/svg10.dtd"> <svg version="1.0" xmlns="http://www.w3.org/2000/svg" width="600.000000pt" height="600.000000pt" viewBox="0 0 600.000000 600.000000" preserveAspectRatio="xMidYMid meet"> <g transform="translate(0.000000,600.000000) scale(0.050000,-0.050000)" fill="#b00c0c" stroke="none"> <path d="M6650 10206 c-124 -37 -148 -56 -192 -157 -95 -214 -240 -234 -464 -63 -249 190 -660 145 -871 -95 -100 -114 -67 -187 162 -359 286 -215 531 -266 742 -154 230 122 310 76 334 -190 26 -276 73 -474 181 -752 72 -188 98 -283 98 -360 2 -331 183 -476 591 -476 430 1 569 111 569 449 0 117 11 199 37 265 20 53 57 186 82 296 25 110 67 270 93 356 27 86 48 205 48 265 0 183 56 217 223 139 244 -113 489 -23 822 303 172 169 173 226 7 311 -288 147 -513 157 -746 33 -228 -121 -308 -118 -439 16 -164 168 -252 191 -757 197 -324 4 -443 -2 -520 -24z"/> <path d="M3092 9630 c-291 -119 -649 -492 -776 -807 -45 -110 -46 -130 -46 -843 -1 -1080 -55 -1572 -201 -1810 -13 -22 -48 -152 -78 -290 -31 -142 -75 -286 -103 -334 -88 -152 37 -143 178 14 200 222 258 367 290 720 l15 170 34 -99 c44 -124 45 -266 1 -374 -40 -102 -43 -217 -11 -517 47 -434 36 -553 -89 -958 l-51 -168 47 -35 47 -36 -36 -107 c-68 -198 -21 -276 191 -320 100 -21 119 -20 151 10 34 30 42 30 76 4 156 -117 205 25 100 285 -143 350 -147 1056 -9 1414 22 55 48 173 60 261 11 88 59 286 108 440 48 154 98 323 111 375 42 167 152 125 423 -164 238 -253 317 -397 114 -208 -116 110 -115 110 -189 -113 -77 -231 -73 -329 21 -530 161 -346 310 -903 310 -1160 0 -141 3 -152 48 -169 61 -23 77 -73 52 -160 -29 -104 8 -144 188 -200 109 -35 159 -42 174 -27 12 12 56 17 99 11 233 -31 233 52 -3 366 -78 103 -155 302 -280 719 -128 426 -81 719 156 972 107 114 75 109 386 59 61 -10 215 -19 343 -20 l233 -1 33 -155 c19 -85 59 -245 90 -355 43 -154 53 -228 46 -323 -7 -90 2 -162 35 -272 53 -180 49 -466 -11 -731 -39 -172 -37 -183 40 -210 12 -4 6 -57 -15 -130 -60 -216 -42 -284 93 -345 113 -52 163 -49 208 14 l39 53 43 -43 c127 -127 234 5 155 193 -175 418 -198 899 -60 1228 54 130 60 246 25 478 -47 308 80 638 191 493 105 -138 381 -255 601 -255 l101 0 0 -275 c0 -267 2 -280 67 -434 92 -216 102 -385 44 -689 -45 -236 -44 -282 8 -282 25 0 31 -30 31 -160 0 -146 5 -164 55 -219 97 -106 326 -133 354 -43 12 36 17 36 73 8 157 -78 251 8 163 149 -130 209 -166 289 -228 498 -92 315 -103 516 -43 806 26 127 60 311 77 408 18 107 70 277 131 430 55 139 117 322 137 407 23 93 63 190 101 246 105 153 195 370 230 555 33 180 33 191 -24 583 l-32 218 -37 -77 c-109 -225 -429 -341 -801 -291 -393 53 -575 231 -576 566 -1 101 -16 151 -150 506 -51 136 -115 414 -142 625 -15 120 -12 119 -148 65 -207 -82 -530 -40 -750 96 l-120 74 -250 3 c-310 3 -502 31 -810 121 -554 161 -838 187 -1058 96z"/> <path d="M1681 2911 c-20 -24 -12 -34 47 -59 l72 -30 -2 -416 c-3 -489 -9 -526 -84 -562 -73 -35 -65 -95 11 -93 30 1 128 3 217 5 172 4 203 32 83 73 -34 11 -68 27 -75 34 -19 19 -12 683 7 702 15 15 212 -412 334 -720 30 -76 40 -85 98 -85 l65 0 131 335 c72 184 142 374 156 421 39 130 54 83 90 -281 37 -377 36 -385 -49 -402 -34 -6 -62 -25 -62 -40 0 -41 146 -58 349 -41 179 14 218 42 114 81 -65 24 -72 72 -96 619 -15 327 -6 382 63 400 149 37 38 88 -193 88 l-179 0 -36 -85 c-20 -47 -88 -232 -152 -411 -64 -180 -122 -319 -130 -310 -8 9 -80 183 -160 386 -80 204 -159 381 -176 395 -47 37 -412 34 -443 -4z"/> <path d="M3793 2927 c-28 -29 -11 -63 39 -76 63 -15 75 34 -135 -521 -189 -497 -185 -490 -239 -490 -39 0 -74 -51 -51 -74 14 -13 351 -23 388 -10 41 14 28 61 -18 68 -75 11 -89 61 -51 183 l35 110 144 13 c263 24 278 19 328 -122 48 -133 45 -147 -41 -184 -111 -49 -31 -73 244 -75 326 -1 386 19 237 81 -92 38 -87 31 -279 500 -94 231 -189 463 -212 515 l-41 95 -167 0 c-92 0 -173 -6 -181 -13z m263 -475 c46 -104 84 -194 84 -200 0 -7 -76 -12 -170 -12 -93 0 -170 5 -170 12 0 26 149 388 160 388 7 0 50 -85 96 -188z"/> <path d="M4632 2924 c-8 -14 -19 -241 -14 -309 4 -62 60 -37 102 45 47 92 121 137 243 144 l87 6 6 -460 c6 -500 -1 -530 -118 -530 -35 0 -57 -59 -23 -61 29 -1 535 -2 562 -1 48 3 12 49 -58 72 l-69 24 -5 473 -6 473 118 0 c141 0 199 -37 220 -140 31 -150 92 -92 99 92 l6 162 -146 14 c-190 17 -993 14 -1004 -4z"/> <path d="M5931 2925 c-28 -29 -6 -61 54 -78 l65 -18 6 -450 c6 -518 5 -528 -76 -556 -146 -51 -54 -76 266 -73 242 3 305 28 187 77 -95 40 -98 55 -90 548 7 439 17 485 99 485 24 0 38 14 38 39 0 38 -512 62 -549 26z"/> <path d="M6702 2921 c-32 -19 -12 -61 28 -61 82 0 90 -44 90 -508 0 -466 -6 -501 -90 -516 -96 -16 -55 -72 64 -84 153 -15 850 -4 880 14 15 10 22 74 19 189 -4 204 -33 228 -109 90 -75 -135 -145 -173 -323 -174 l-151 -1 -5 463 c-6 497 -1 527 98 527 27 0 38 11 33 35 -7 38 -477 61 -534 26z"/> <path d="M7865 2927 c-38 -16 -30 -67 11 -67 118 0 124 -25 124 -507 0 -477 -5 -504 -100 -517 -27 -3 -52 -21 -56 -39 -14 -74 718 -74 914 1 521 197 514 921 -10 1091 -115 38 -812 68 -883 38z m684 -129 c354 -89 374 -762 27 -907 -120 -50 -288 -42 -303 14 -17 62 -16 885 0 902 21 20 180 15 276 -9z"/> <path d="M9636 2905 c-13 -15 -25 -61 -27 -101 -2 -41 -64 -222 -138 -404 -202 -499 -224 -541 -292 -566 -132 -51 -45 -92 171 -82 66 4 136 7 155 7 52 1 42 55 -13 69 -67 16 -73 50 -33 169 47 138 36 133 267 133 l203 0 46 -128 c50 -140 39 -182 -47 -182 -27 0 -48 -12 -48 -27 0 -31 325 -57 488 -38 100 11 128 68 39 81 -66 10 -95 55 -196 314 -52 132 -140 357 -196 500 -56 143 -105 265 -110 270 -20 24 -247 12 -269 -15z m160 -445 c44 -104 76 -197 70 -206 -17 -29 -306 -9 -306 21 0 27 144 388 151 380 3 -3 41 -90 85 -195z"/> </g> </svg>